<?xml version="1.0" encoding="utf-8"?>
<!-- Generator: Adobe Illustrator 22.0.0, SVG Export Plug-In . SVG Version: 6.00 Build 0)  -->
<svg version="1.1" id="Capa_1" xmlns="http://www.w3.org/2000/svg" xmlns:xlink="http://www.w3.org/1999/xlink" x="0px" y="0px"
	 viewBox="0 0 754.1 573.5" style="enable-background:new 0 0 754.1 573.5;" xml:space="preserve">
<style type="text/css">
	.st0{fill:#2b51b4;}
	.st1{fill:#FEFEFE;}
	.st2{fill:#FBFCFC;}
	.st3{fill:#FAFAFA;}
	.st4{fill:#F9FAFB;}
	.st5{fill:#F9FBFB;}
	.st6{fill:#F7F9F9;}
	.st7{fill:#F8FAFA;}
	.st8{fill:#F5F7F8;}
	.st9{fill:#F0F3F5;}
	.st10{fill:#2b51b4;}
	.st11{fill:#2b51b4;}
	.st12{fill:#2b51b4;}
	.st13{fill:#2b51b4;}
	.st14{fill:#FCFDFD;}
</style>
<g>
	<path class="st0" d="M381.7,713.8c-176.2,0-352.4,0-528.6,0.1c-3.1,0-3.8-0.7-3.8-3.8c0.1-272.4,0.1-544.8,0-817.2
		c0-3.1,0.7-3.8,3.8-3.8c352.4,0.1,704.9,0.1,1057.3,0c3.1,0,3.8,0.7,3.8,3.8c-0.1,272.4-0.1,544.8,0,817.2c0,3.1-0.7,3.8-3.8,3.8
		C734.1,713.8,557.9,713.8,381.7,713.8z M261.1,301.7c0-66.1,0-132.3,0.1-198.4c0-3.5-0.9-4.3-4.3-4.3c-24.3,0.2-48.5,0.1-72.8,0
		c-3.1,0-3.9,0.7-3.9,3.9c0.1,24.5,0,48.9,0.2,73.4c0,3.2-0.8,3.9-3.9,3.9c-24-0.1-48,0.1-71.9-0.2c-4.4,0-5.1,1.3-5,5.3
		c0.2,23.9,0,47.8,0.2,71.7c0,3.1-0.6,4.2-4,4.2c-24.3-0.2-48.5,0-72.8-0.2c-3.1,0-4.2,0.6-4.1,4c0.2,24.2,0.2,48.4,0,72.5
		c0,3.5,0.6,4.6,4.4,4.6c24.1-0.2,48.2,0,72.4-0.2c3.2,0,4.2,0.7,4.1,4.1c-0.2,24.3,0,48.6-0.2,73c0,3.3,0.8,4.1,4.1,4.1
		c24.3-0.1,48.5,0,72.8-0.2c3.4,0,4,1,4,4.2c-0.1,24,0,48.1-0.1,72.1c0,3.6,0.6,4.9,4.6,4.9c24-0.2,48-0.2,71.9,0
		c3.8,0,4.4-1.1,4.4-4.6C261.1,433.4,261.1,367.6,261.1,301.7z M368.9,328c1,1.7-0.6,4.6,3,4.5c5.8-0.3,11.6-0.1,17.5,0
		c1.8,0,2.5-0.6,2.4-2.4c-0.5-19.4,1.1-38.9-0.9-58.3c-1.4-13.8-8.7-23.7-21.6-28.4c-18.5-6.9-35.2-2.5-50.4,9.4
		c-1.4,1.1-2,2-0.3,3.6c3.3,3.1,6.5,6.4,9.6,9.8c1.4,1.6,2.4,1.6,4,0.2c6.1-5.1,13.2-6.7,21-6.1c8.6,0.7,15.1,6.3,16,13.7
		c0.3,2.2,0,3.4-2.7,3.2c-3.5-0.2-6.9-0.2-10.4,0c-9.9,0.4-19.6,1.6-28.3,6.9c-11.3,6.8-16,18.7-12.6,31.4
		c3,11.2,13.5,18.8,26.2,19.1C351.2,334.8,360.5,333.4,368.9,328z M431.9,248.5c-1-5.8-1-5.8-7.1-5.8c-4.3,0-8.6,0.1-12.9,0
		c-2.3-0.1-3.1,0.5-3.1,2.9c0.1,27.9,0.1,55.9,0,83.8c0,2.7,1,3.2,3.4,3.1c4.8-0.2,9.7-0.3,14.5,0c3.4,0.2,4.4-0.8,4.4-4.3
		c-0.2-19.2-0.1-38.3-0.1-57.5c0-1.8-0.3-3.6,1.5-4.9c7.6-5.5,15.8-8.3,24.9-4.7c8.5,3.5,10.6,11,10.6,19.4c0,16.1,0,32.2-0.1,48.3
		c0,2.5,0.4,3.8,3.4,3.6c5.3-0.3,10.5-0.2,15.8,0c2.6,0.1,3.3-0.9,3.2-3.4c-0.1-17.6,0.2-35.3-0.1-52.9
		c-0.4-23.6-15.4-36.3-36.2-35.9C446,240.4,438.5,243.3,431.9,248.5z M308.4,313.9c-12,4.9-15.6-0.5-15.1-10.4c0.4-10,0.1-20,0.1-30
		c0-22.1-0.1-44.2,0.1-66.3c0-3.2-0.8-4-3.9-3.9c-5.3,0.3-10.5,0.2-15.8,0c-2.7-0.1-3.5,0.7-3.5,3.5c0.1,34.7,0.1,69.5,0.1,104.2
		c0,3.1,0.6,6.1,1.6,9c4.3,12.5,24.1,19.5,35.2,12.5c1.3-0.8,1.2-2,1.2-3.2C308.4,324.2,308.4,319.2,308.4,313.9z M708.5,466.4
		c-0.7-1.9,0.1-3,2-3.7c1.3-0.4,2.5-2.7,3.9-1c3.7,4.6,5.4,1,7.7-1.4c1.9-1.9,2.1-3.4-0.3-4.9c-1.4-0.9-2.1-2-1-3.8
		c1.1-1.7,1.3-4.3,4.1-3.8c3.9,0.7,3.7-1.8,3.6-4.2c-0.2-2.2,1.5-5.8-3.2-5.2c-3,0.4-3.1-2.1-3.9-3.9c-0.9-2.1-0.2-3.4,1.6-4.5
		c0.8-0.5,2.2-1.1,1.7-2c-1.3-2.1-2.8-4.2-4.6-5.9c-1.5-1.5-2.8,0.3-3.9,1.2c-2.3,1.8-3.5-0.5-5.1-1.1c-1.6-0.6-2-1.8-1.4-3.3
		c0.6-1.8,1.7-4-1.8-3.9c-2.6,0-6.5-4.1-7.5,1.9c-0.5,3-3.1,2.3-4.8,3c-1.6,0.7-2.6-0.3-3.1-1.8c-1.8-5.2-4.4-1.2-6.6-0.4
		c-2.6,0.8-4.2,2.2-1.9,5.1c1.4,1.7,0.4,3-1,4.3c-1.1,1-1.7,3-4,1.8c-2-1-4.2-2.2-4.8,1.6c-0.4,2.7-4.5,5.8,1.3,7.4
		c2,0.6,2.3,6.8,0.4,7.2c-5.3,1-3.6,3.8-2.7,7.2c0.8,2.8,1.6,4.1,4.4,2.6c1.9-1,2.9-0.3,4.1,1.3c1.2,1.6,2.8,2.9,1.1,5
		c-3.8,4.8,1.8,4.4,3.4,6.1c1.8,2,3.7,1.5,4.7-1c0.7-1.8,1.9-2.4,3.6-1.6c1.6,0.7,4.4-0.2,4.2,3.2c-0.1,2,0.8,4.2,3.4,3
		C704.6,469.8,709.2,471.9,708.5,466.4z M288.7,386.6c-5,1.8-8.9,4.1-9.6,9.7c-0.6,4.7,0.7,8.4,4.5,11.3c7.4,5.5,23.3,5.5,30.6,0
		c6.9-5.2,6.4-14.6-1-19.1c-3.5-2.1-7.3-3-11.4-3.3c-1.9-0.1-4.6-0.4-4.7-2.3c-0.1-2,2.6-2.4,4.5-2.6c0.3,0,0.6,0,0.8-0.1
		c10.6-2.2,16.1-10.6,13.8-21.1c-0.4-1.7-0.2-2,1.5-2.3c4.6-0.7,1.5-4.3,2.1-6.6c0.6-2.5-1.5-2-3-2c-5.7-0.1-11.3-0.3-16.9-1
		c-11-1.4-20.4,7.3-19.9,17.7c0.3,6.1,4.2,10.1,9.2,13.4C285.8,380.9,285.8,383.6,288.7,386.6z M479.1,440.1c0,4.7,0,9.5,0,14.2
		c0,7.1,0,7,7.3,7.1c2.7,0,3.5-0.7,3.5-3.4c-0.2-8.2,0-16.4-0.1-24.6c0-2.3,0.9-3.6,2.7-4.6c6.2-3.6,12.2-0.2,12.3,7.1
		c0.1,6.1,0,12.2,0,18.3c0,7.2,0,7.1,7.1,7.2c2.9,0.1,3.8-0.8,3.7-3.7c-0.4-8.6,0.5-17.2-0.5-25.8c-0.1-1,0.2-1.6,0.9-2.1
		c3.1-2.1,6.5-3.3,10.2-1.8c3.5,1.4,4.6,4.4,4.6,8.1c-0.1,6,0,12,0,17.9c0,7.4,0,7.3,7.4,7.4c2.8,0,3.4-0.9,3.4-3.5
		c-0.2-7.8,0-15.6-0.1-23.3c-0.1-10-6.5-16.2-16.5-16.2c-4.3,0-8.2,1-11.6,3.7c-1.4,1.1-2.4,1.1-3.9-0.1c-5.5-4.5-11.5-4.9-17.7-1.2
		c-0.6,0.3-1.5,1.2-1.7,0.7c-1.9-4.2-5.5-1.2-8.1-2c-2.1-0.6-2.9,0.5-2.8,2.7C479.2,428.1,479.1,434.1,479.1,440.1z M561.3,460
		c14.3,6.8,25.7-2,28.8-12.5c4.6-15.5-7.1-31.4-21.8-28.8c-4.7,0.8-9.1,0.7-13.7,0.5c-3.1-0.1-4.2,0.6-4.1,4
		c0.2,16.4,0.1,32.7,0.1,49.1c0,7.4,0,7.2,7.4,7.3c2.7,0,3.5-0.8,3.4-3.5C561.1,470.9,561.3,465.7,561.3,460z M331.5,420.2
		c-13.5-3.9-22.2-0.7-27.4,9.7c-7.5,14.7,2.4,32.8,17.9,32.4c5.1-0.1,10.2-2.2,15.4-1.1c3.4,0.7,4.7-0.4,4.6-4.3
		c-0.3-16.4-0.1-32.8-0.1-49.1c0-6.9,0-6.8-7-6.9c-2.8,0-3.5,0.8-3.4,3.5C331.7,409.6,331.5,414.9,331.5,420.2z M453.9,374.2
		c2.9,0,5.8,0,8.7,0c9.9,0,10.5-0.7,8-10.7c-2.8-11.5-15.9-18.9-28.1-15.7c-12,3.1-19.3,15.7-16.2,27.4c4.9,17.8,24.9,21,37.9,12.4
		c0.6-0.4,1.9-1,1.3-1.8c-1.6-2-3.5-3.9-5.4-5.7c-1.4-1.3-2.4,0.5-3.5,1.1c-7,3.4-14.6,1.9-18.2-3.7c-0.5-0.8-1.4-1.6-0.9-2.6
		c0.5-1.1,1.7-0.6,2.6-0.6C444.8,374.2,449.3,374.2,453.9,374.2z M353.4,374.2c4.6,0,9.1-0.1,13.7,0.1c2.4,0.1,3.4-0.6,3.7-3.1
		c1-12.1-8.6-23.1-21.3-24.1c-12.2-0.9-23.7,8.8-24.3,20.6c-0.5,9.8,3.3,17.4,12.1,21.8c9.2,4.6,18.2,3.3,26.7-2.1
		c0.6-0.4,1.6-1,1.2-1.5c-1.6-2-3.5-3.9-5.3-5.8c-1.4-1.4-2.2,0.2-3.1,0.7c-7.3,3.8-15.2,2.3-18.9-3.6c-1.2-1.9-1.7-3.2,1.5-3.1
		C343.9,374.3,348.7,374.2,353.4,374.2z M362,444.5c9.3,0,18.6,0,27.8,0c5.9,0,6.9-1.2,5.7-7c-0.1-0.7-0.3-1.3-0.5-2
		c-2.5-12-15.2-19.8-27.3-16.7c-12.2,3.1-19.6,15.4-16.4,27.2c4.9,17.6,24.8,20.7,37.6,11.7c0.5-0.4,1.5-0.8,1-1.5
		c-1.6-1.9-3.3-3.7-5.1-5.4c-1.5-1.4-2.5,0.3-3.6,0.9C372.7,455.8,364.8,453,362,444.5z M633.2,444.5c9.2,0,18.3,0,27.4,0
		c6.5,0,7.2-0.9,5.9-7.5c-0.1-0.5-0.2-1.1-0.3-1.6c-2.4-11.9-15.2-19.7-27.4-16.7c-12.1,3-19.6,15.5-16.3,27.2
		c4.6,16.6,25.2,22.2,38.9,10.4c-0.4-0.4-0.7-0.8-1.1-1.3c-2.8-3.5-5.3-5.4-10.5-2.8C642.5,456,635.5,452.2,633.2,444.5z
		 M437.6,444.8c0.6-0.1,0.8-0.2,1.1-0.2c9.3,0,18.6-0.3,27.9,0.1c4.1,0.2,5-1.5,4.8-5c-0.4-9.5-6.4-17.4-15.6-20.3
		c-9.2-2.9-19.2,0.2-24.9,7.7c-6.8,9.1-5.8,21.9,2.4,29.5c9.4,8.7,23.1,7.1,31.4,1.1c0.5-0.4,1.5-0.9,0.9-1.6
		c-1.6-1.9-3.3-3.7-5.2-5.4c-1.5-1.3-2.5,0.5-3.6,1C448.4,455.7,440.9,453.1,437.6,444.8z M648.2,392c10.8,1,23.2-8.5,23-22.4
		c-0.2-12.6-10.2-22.6-22.8-22.6c-12.5,0-22.9,10.2-22.9,22.6C625.5,382.2,635.4,391.9,648.2,392z M550,376.4c-0.1,0-0.2,0-0.3,0
		c0-4.7,0.3-9.4-0.1-14.1c-0.5-6.3-3.8-11-9.6-13.4c-8.5-3.5-16.5-1.8-23.8,3.5c-0.6,0.4-1.9,1.1-1.3,1.8c1.5,2,3.2,3.8,5.1,5.5
		c1.5,1.4,2.4-0.7,3.5-1.3c5.4-2.9,12.5-2,14.9,2.2c1.8,3.2,1.4,4-2.3,4.1c-5.4,0-10.8,0.3-15.7,3c-5.2,2.8-7.7,7.5-7.2,13.4
		c0.5,5,4,9.5,9.1,10.6c4.7,1,9.6,0.9,14.2-1.1c0.8-0.4,1.9-1.5,2.6-0.7c2.6,2.8,5.7,0.7,8.5,1.3c2,0.4,2.6-0.7,2.5-2.6
		C550,384.4,550,380.4,550,376.4z M378.5,369.4c0,3.6,0,7.2,0,10.8c0,1.2,0,2.5,0,3.7c0,7.2,0,7,7.2,7.2c3,0.1,3.7-0.8,3.6-3.7
		c-0.2-8-0.1-16.1-0.1-24.1c0-1.3-0.3-2.7,0.8-3.9c2-2.2,7.8-3.6,11.2-2.5c4,1.3,5.5,4.3,5.5,8.3c0,6.2,0,12.5,0,18.7
		c0,7.2,0,7,7.1,7.3c3.3,0.1,3.8-1.1,3.7-4c-0.2-7.3,0-14.7-0.1-22.1c-0.1-14.8-11.9-22.2-25.3-15.7c-0.7,0.3-1.8,1.4-2.1,0.8
		c-2.1-3.9-5.6-1.4-8.4-2c-2.6-0.6-3.2,0.8-3.2,3.3C378.6,357.4,378.5,363.4,378.5,369.4z M679.4,369.5c0,4.7,0,9.4,0,14.2
		c0,7.5,0,7.3,7.3,7.4c2.7,0,3.6-0.6,3.5-3.4c-0.2-8.3-0.1-16.7-0.1-25c0-1.7-0.1-3.3,1.7-4.3c3.7-2,7.4-3.1,11.3-1
		c3.4,1.9,4.4,5.2,4.4,8.8c0,5.8,0,11.7,0,17.5c0,7.5,0,7.3,7.3,7.4c2.8,0,3.5-0.8,3.5-3.5c-0.2-7.4,0-14.7-0.1-22.1
		c-0.1-15.5-12.5-22.9-26.3-15.9c-0.5,0.3-1.4,1.3-1.6,0.7c-1.8-4.4-5.5-1.5-8.2-2.2c-2.3-0.6-3,0.7-3,3
		C679.5,357.3,679.4,363.4,679.4,369.5z M580.7,392c6.4,0,12.1-1.9,15.6-5.4c0.7-0.7,2.4-1.4,1.3-2.6c-1.9-2.2-3.8-4.6-6.2-6
		c-1.6-1-2.7,1.8-4.1,2.7c-5,3.2-11.2,2.3-15.3-2.4c-4.4-5.1-4.3-12.4,0.2-17.4c4.1-4.5,10.9-5.7,15.2-1.8c2.9,2.7,4.5,2.1,6.3-0.6
		c0.3-0.4,0.7-0.9,1.2-1.2c3.1-2.2,2.3-3.9-0.4-5.9c-7.7-5.5-19.1-5.7-26.9-0.2c-8,5.7-11.5,16.2-8.4,25.8
		C562.3,386.3,571.7,392.7,580.7,392z M598.8,427.2c0,7.6-0.1,15.3,0,22.9c0.1,9.2,6.1,14,15,12c2.5-0.6,4.6-6.9,2.9-8.7
		c-0.5-0.5-1-0.1-1.5-0.1c-4.8,0.2-5.7-0.6-5.7-5.6c0-13.2,0-26.3,0-39.5c0-7.3,0-7.2-7.4-7.3c-2.7,0-3.5,0.7-3.4,3.4
		C599,412,598.8,419.6,598.8,427.2z M490.3,351.6c0.2-3.5-1.9-3.8-4.4-3.4c-0.8,0.1-1.7,0.1-2.5,0c-3.1-0.4-4.3,0.6-4.2,4
		c0.2,10.4,0.1,20.8,0.1,31.2c0,7.9,0,7.8,7.9,7.7c2.6,0,2.9-1,2.9-3.2c-0.1-6.4,0-12.8,0-19.2c0-4.1,0.4-8.3,4.5-10.5
		c4.1-2.2,7,0.7,10,3.3c1.5-2.3,2.8-4.6,4.3-6.6c1.5-1.9,0.9-3.1-0.8-4.5C502.2,345.7,498,345.9,490.3,351.6z M605.2,369.8
		c0,4.7,0,9.4,0,14.2c0,7.2,0,7,7.1,7.2c3.2,0.1,3.9-1,3.8-4c-0.2-10.4-0.1-20.8-0.1-31.2c0-8,0-7.8-7.8-7.9c-2.8,0-3.2,1.1-3.1,3.4
		C605.3,357.6,605.2,363.7,605.2,369.8z M660.1,328.6c-3.9,0-6.8,0-9.7,0c-1.2,0-2.3-0.1-3,1.5c-1.8,4.1-3.7,8.2-5.8,12.7
		c3.3-0.2,6.4,1.5,8.6-1C653.6,337.8,656.5,333.5,660.1,328.6z M616.3,334.3c0.5-2.6,0.6-5.8-4.7-4.8c-2.9,0.6-7.5-2.3-7.1,4.4
		c0.5,7,0.1,7,6,7C616.3,340.9,616.3,340.9,616.3,334.3z M523.9,243c-0.7-1.4-1.7-2.6-3.5-1.8c-4.9,2.1-9.8,4.3-14.7,6.4
		c-1.5,0.6-2.3,1.7-1.8,3.2c0.7,2,2.3,1.5,3.7,0.9c4.7-2,9.3-4,13.9-6C522.7,245.2,523.7,244.5,523.9,243z M505.5,220.1
		c0.1-1.3-0.2-2.1-1.1-2.4c-1.3-0.5-2.5-0.2-3.3,0.9c-3.2,4.2-6.3,8.4-9.5,12.6c-1,1.3-1.2,2.6,0.2,3.6c1.4,1,2.5,0.3,3.5-1
		c3.1-4.1,6.2-8.2,9.3-12.3C505.1,221,505.4,220.4,505.5,220.1z M521.6,275.2c1.4,0,2.3,0,3.1,0c1.5,0.1,2.4-0.5,2.5-2.1
		c0-1.3-0.7-2-2-2.2c-5.3-0.6-10.7-1.2-16-1.7c-1.5-0.2-2.8,0.1-2.8,2.1c0,1.6,0.9,2.1,2.3,2.3C513.2,274.1,517.7,274.7,521.6,275.2
		z M477.5,211.2c-0.1,0-0.1,0-0.2,0c0.1-0.8,0.3-1.7,0.3-2.5c0-1.3-0.1-2.6-1.8-2.7c-1.5-0.1-2.4,0.8-2.5,2.2
		c-0.7,5.3-1.3,10.7-1.9,16c-0.1,1.3-0.1,2.6,1.7,2.7c1.8,0.1,2.4-1,2.6-2.6C476.3,219.9,476.9,215.5,477.5,211.2z"/>
	<path class="st1" d="M261.1,301.7c0,65.9,0,131.7,0.1,197.6c0,3.5-0.6,4.6-4.4,4.6c-24-0.2-48-0.2-71.9,0c-4,0-4.6-1.3-4.6-4.9
		c0.1-24,0-48.1,0.1-72.1c0-3.1-0.6-4.2-4-4.2c-24.3,0.2-48.5,0-72.8,0.2c-3.3,0-4.1-0.8-4.1-4.1c0.1-24.3,0-48.6,0.2-73
		c0-3.4-1-4.1-4.1-4.1c-24.1,0.1-48.2,0-72.4,0.2c-3.8,0-4.5-1.1-4.4-4.6c0.2-24.2,0.2-48.4,0-72.5c0-3.4,1-4,4.1-4
		c24.3,0.1,48.5,0,72.8,0.2c3.4,0,4-1,4-4.2c-0.1-23.9,0-47.8-0.2-71.7c0-4,0.6-5.3,5-5.3c24,0.3,48,0.1,71.9,0.2
		c3.1,0,3.9-0.7,3.9-3.9c-0.1-24.5,0-48.9-0.2-73.4c0-3.1,0.8-3.9,3.9-3.9c24.3,0.1,48.5,0.2,72.8,0c3.4,0,4.3,0.8,4.3,4.3
		C261.1,169.4,261.1,235.6,261.1,301.7z M165.4,269.9c0,19.6,0,39.2-0.1,58.8c0,2.6,0.5,3.7,3.4,3.6c5.7-0.2,11.4-0.2,17,0
		c3,0.1,3.7-1,3.6-3.8c-0.2-11.1,0-22.2-0.1-33.4c0-2.8,0.8-3.4,3.5-3.4c8.6-0.1,17.2,0.9,25.7-0.8c21.9-4.5,36.8-24.3,33.2-47.4
		c-3.2-21-20.2-34.8-41.5-35.1c-13.7-0.2-27.5,0.1-41.2-0.1c-3,0-3.6,0.9-3.6,3.7C165.5,231.3,165.4,250.6,165.4,269.9z"/>
	<path class="st2" d="M368.9,328c-8.4,5.5-17.7,6.8-27.4,6.5c-12.7-0.3-23.2-7.9-26.2-19.1c-3.4-12.7,1.4-24.6,12.6-31.4
		c8.7-5.3,18.4-6.5,28.3-6.9c3.5-0.1,6.9-0.2,10.4,0c2.6,0.2,2.9-1,2.7-3.2c-1-7.4-7.5-13-16-13.7c-7.8-0.6-14.9,1-21,6.1
		c-1.7,1.4-2.6,1.4-4-0.2c-3.1-3.4-6.3-6.7-9.6-9.8c-1.7-1.6-1.1-2.5,0.3-3.6c15.2-11.9,31.9-16.3,50.4-9.4
		c12.9,4.8,20.2,14.7,21.6,28.4c1.9,19.4,0.4,38.9,0.9,58.3c0,1.8-0.6,2.4-2.4,2.4c-5.8-0.1-11.7-0.2-17.5,0
		C368.2,332.6,369.9,329.7,368.9,328z M369.3,302.1c0-8.6,0-8.6-8.5-8.6c-2.2,0-4.4-0.1-6.6,0c-3.9,0.2-7.7,1-11.2,2.8
		c-4,2.1-6.5,5.1-6.2,9.9c0.3,4.2,3.3,7.5,8,9c5.6,1.8,10.9,0.5,16.2-1.3C369.4,311.1,369.3,311,369.3,302.1z"/>
	<path class="st2" d="M431.9,248.5c6.6-5.2,14-8.1,22.2-8.2c20.8-0.4,35.8,12.4,36.2,35.9c0.3,17.6,0,35.3,0.1,52.9
		c0,2.5-0.6,3.5-3.2,3.4c-5.3-0.2-10.5-0.2-15.8,0c-3,0.1-3.4-1.1-3.4-3.6c0.1-16.1,0-32.2,0.1-48.3c0-8.4-2.1-15.9-10.6-19.4
		c-9.1-3.7-17.3-0.9-24.9,4.7c-1.8,1.3-1.5,3.1-1.5,4.9c0,19.2-0.1,38.3,0.1,57.5c0,3.5-1,4.5-4.4,4.3c-4.8-0.3-9.7-0.2-14.5,0
		c-2.4,0.1-3.4-0.4-3.4-3.1c0.1-27.9,0.1-55.9,0-83.8c0-2.4,0.8-3,3.1-2.9c4.3,0.2,8.6,0,12.9,0
		C430.9,242.6,430.9,242.6,431.9,248.5z"/>
	<path class="st3" d="M308.4,313.9c0,5.3,0,10.3,0,15.3c0,1.2,0.1,2.4-1.2,3.2c-11.1,7-30.9,0.1-35.2-12.5c-1-2.9-1.6-5.9-1.6-9
		c0-34.7,0-69.5-0.1-104.2c0-2.8,0.8-3.6,3.5-3.5c5.3,0.2,10.5,0.3,15.8,0c3.1-0.2,3.9,0.7,3.9,3.9c-0.1,22.1-0.1,44.2-0.1,66.3
		c0,10,0.3,20-0.1,30C292.8,313.4,296.4,318.8,308.4,313.9z"/>
	<path class="st4" d="M708.5,466.4c0.7,5.5-4,3.4-6.3,4.4c-2.6,1.2-3.6-0.9-3.4-3c0.2-3.5-2.6-2.5-4.2-3.2c-1.7-0.8-2.9-0.2-3.6,1.6
		c-1,2.6-2.9,3-4.7,1c-1.6-1.7-7.2-1.3-3.4-6.1c1.7-2.1,0-3.4-1.1-5c-1.2-1.6-2.1-2.3-4.1-1.3c-2.8,1.5-3.6,0.2-4.4-2.6
		c-0.9-3.4-2.6-6.1,2.7-7.2c1.9-0.4,1.6-6.6-0.4-7.2c-5.9-1.7-1.8-4.8-1.3-7.4c0.6-3.8,2.8-2.6,4.8-1.6c2.3,1.2,2.8-0.8,4-1.8
		c1.4-1.2,2.3-2.6,1-4.3c-2.4-2.9-0.7-4.2,1.9-5.1c2.2-0.7,4.8-4.8,6.6,0.4c0.5,1.5,1.5,2.5,3.1,1.8c1.7-0.7,4.3,0,4.8-3
		c1-6,4.9-1.8,7.5-1.9c3.5-0.1,2.4,2.1,1.8,3.9c-0.5,1.6-0.2,2.7,1.4,3.3c1.6,0.6,2.9,2.9,5.1,1.1c1.1-0.9,2.3-2.7,3.9-1.2
		c1.8,1.7,3.3,3.7,4.6,5.9c0.6,0.9-0.9,1.5-1.7,2c-1.8,1.1-2.6,2.4-1.6,4.5c0.8,1.8,0.9,4.3,3.9,3.9c4.7-0.6,3.1,3,3.2,5.2
		c0.2,2.4,0.3,4.9-3.6,4.2c-2.8-0.5-3.1,2.1-4.1,3.8c-1.1,1.8-0.4,2.9,1,3.8c2.4,1.5,2.2,3,0.3,4.9c-2.3,2.4-4.1,6-7.7,1.4
		c-1.4-1.7-2.6,0.6-3.9,1C708.6,463.4,707.8,464.5,708.5,466.4z M699.9,454.4c6.6,0.1,12-5.3,12-11.8c0-6.6-5.3-12.1-11.7-12.1
		c-6.5,0-11.9,5.3-12,11.8C688.1,448.8,693.4,454.3,699.9,454.4z"/>
	<path class="st4" d="M288.7,386.6c-2.9-3-3-5.7,0.6-8.3c-5-3.3-8.8-7.3-9.2-13.4c-0.6-10.4,8.9-19.1,19.9-17.7
		c5.7,0.7,11.3,0.9,16.9,1c1.4,0,3.6-0.4,3,2c-0.6,2.2,2.4,5.8-2.1,6.6c-1.7,0.3-1.9,0.6-1.5,2.3c2.3,10.6-3.3,18.9-13.8,21.1
		c-0.3,0.1-0.6,0-0.8,0.1c-1.9,0.2-4.6,0.6-4.5,2.6c0.1,1.9,2.8,2.2,4.7,2.3c4,0.2,7.9,1.2,11.4,3.3c7.5,4.4,8,13.8,1,19.1
		c-7.4,5.6-23.3,5.6-30.6,0c-3.8-2.9-5.1-6.6-4.5-11.3C279.8,390.7,283.7,388.4,288.7,386.6z M306.3,363.8c0-4.4-3.6-7.9-7.9-7.8
		c-4.1,0.1-7.4,3.6-7.4,7.8c0,4.4,3.6,8,7.9,7.9C302.9,371.6,306.3,368,306.3,363.8z M298.9,393.6c-2.4-0.2-4.7,0.1-6.8,1.2
		c-1.5,0.7-2.4,2-2.4,3.6c0,1.6,0.8,2.9,2.4,3.6c4.6,2,9.3,2.2,13.9,0.1c1.5-0.7,2.4-1.8,2.5-3.5c0-1.9-1.1-3.1-2.6-3.9
		C303.6,393.6,301.3,393.4,298.9,393.6z"/>
	<path class="st4" d="M479.1,440.1c0-6,0.1-12,0-17.9c-0.1-2.2,0.8-3.3,2.8-2.7c2.7,0.7,6.2-2.2,8.1,2c0.2,0.5,1.1-0.4,1.7-0.7
		c6.2-3.7,12.1-3.3,17.7,1.2c1.5,1.2,2.5,1.2,3.9,0.1c3.4-2.7,7.4-3.7,11.6-3.7c10,0,16.4,6.2,16.5,16.2c0.1,7.8-0.1,15.6,0.1,23.3
		c0.1,2.6-0.6,3.5-3.4,3.5c-7.4-0.1-7.4,0-7.4-7.4c0-6-0.1-12,0-17.9c0-3.7-1-6.7-4.6-8.1c-3.7-1.5-7-0.3-10.2,1.8
		c-0.7,0.5-1,1.1-0.9,2.1c1,8.6,0.1,17.2,0.5,25.8c0.1,2.9-0.7,3.8-3.7,3.7c-7.1-0.1-7.1,0-7.1-7.2c0-6.1,0.1-12.2,0-18.3
		c-0.1-7.3-6.1-10.7-12.3-7.1c-1.8,1-2.7,2.3-2.7,4.6c0.2,8.2-0.1,16.4,0.1,24.6c0.1,2.8-0.8,3.5-3.5,3.4c-7.3-0.1-7.3,0-7.3-7.1
		C479.1,449.5,479.1,444.8,479.1,440.1z"/>
	<path class="st5" d="M561.3,460c0,5.7-0.1,10.9,0.1,16.2c0.1,2.7-0.7,3.5-3.4,3.5c-7.4-0.1-7.4,0.1-7.4-7.3
		c0-16.4,0.1-32.7-0.1-49.1c0-3.4,1-4.1,4.1-4c4.6,0.2,9,0.3,13.7-0.5c14.7-2.6,26.4,13.4,21.8,28.8
		C587,457.9,575.6,466.8,561.3,460z M561.3,440.1c0,2.1,0.3,4.2-0.1,6.2c-0.7,4.4,1.9,5.9,5.4,6.8c6.3,1.5,12.3-3,13.6-10.1
		c1.3-7.2-3.1-14.3-9.5-15.1c-7.2-0.9-9.5,1.1-9.5,8.1C561.3,437.3,561.3,438.7,561.3,440.1z"/>
	<path class="st5" d="M331.5,420.2c0-5.4,0.1-10.6-0.1-15.8c-0.1-2.7,0.6-3.5,3.4-3.5c7,0.1,7-0.1,7,6.9c0,16.4-0.2,32.8,0.1,49.1
		c0.1,3.9-1.2,5-4.6,4.3c-5.3-1.1-10.3,1-15.4,1.1c-15.5,0.4-25.4-17.6-17.9-32.4C309.4,419.5,318.1,416.4,331.5,420.2z
		 M331.6,440.2c0-2.4-0.2-4.7,0.1-7.1c0.3-3-1.2-4.4-3.7-5c-4.5-1.1-8.8-1-12.2,2.7c-3.9,4.2-4.3,9.2-2.7,14.3
		c1.4,4.6,4.8,7.3,9.6,8c5.7,0.7,9-2.2,9-8C331.6,443.6,331.6,441.9,331.6,440.2z"/>
	<path class="st6" d="M453.9,374.2c-4.6,0-9.1,0-13.7,0c-0.9,0-2.1-0.5-2.6,0.6c-0.5,1,0.5,1.8,0.9,2.6c3.6,5.6,11.1,7.1,18.2,3.7
		c1.1-0.5,2-2.3,3.5-1.1c2,1.7,3.8,3.6,5.4,5.7c0.6,0.8-0.7,1.4-1.3,1.8c-13,8.6-33,5.4-37.9-12.4c-3.2-11.6,4.2-24.3,16.2-27.4
		c12.2-3.2,25.3,4.2,28.1,15.7c2.4,9.9,1.9,10.7-8,10.7C459.7,374.2,456.8,374.2,453.9,374.2z M460.1,365.3
		c-2.2-5.4-5.7-8.5-10.9-8.8c-4.7-0.3-8.4,1.9-11,5.9c-1.1,1.8-1.5,3,1.4,2.9C446.2,365.2,452.8,365.3,460.1,365.3z"/>
	<path class="st6" d="M353.4,374.2c-4.7,0-9.4,0.1-14.1,0c-3.2-0.1-2.7,1.2-1.5,3.1c3.7,5.9,11.6,7.3,18.9,3.6
		c0.9-0.5,1.7-2.1,3.1-0.7c1.8,1.9,3.7,3.7,5.3,5.8c0.4,0.5-0.6,1.1-1.2,1.5c-8.5,5.4-17.5,6.8-26.7,2.1
		c-8.8-4.4-12.6-12.1-12.1-21.8c0.6-11.8,12.2-21.5,24.3-20.6c12.7,1,22.4,12,21.3,24.1c-0.2,2.6-1.2,3.2-3.7,3.1
		C362.5,374.1,357.9,374.2,353.4,374.2z M359.3,365.3c-2.1-5.6-5.8-8.6-11-8.8c-4.6-0.3-8.2,1.9-10.7,5.8c-1.5,2.3-1,3.1,1.7,3
		C345.8,365.2,352.3,365.3,359.3,365.3z"/>
	<path class="st4" d="M362,444.5c2.8,8.5,10.8,11.3,19.2,7.1c1.1-0.5,2.2-2.3,3.6-0.9c1.8,1.7,3.5,3.5,5.1,5.4
		c0.6,0.7-0.5,1.1-1,1.5c-12.8,9-32.7,5.8-37.6-11.7c-3.3-11.8,4.2-24.1,16.4-27.2c12.1-3.1,24.8,4.7,27.3,16.7
		c0.1,0.7,0.3,1.3,0.5,2c1.2,5.9,0.2,7-5.7,7C380.6,444.5,371.3,444.5,362,444.5z M361.9,436.1c7.3,0,14.1,0,21,0
		c0.4,0,0.7-0.2,1.1-0.3c-1.8-5.4-5.8-8.4-10.9-8.4C368.1,427.3,364.3,430.2,361.9,436.1z"/>
	<path class="st4" d="M633.2,444.5c2.4,7.7,9.4,11.5,16.8,7.8c5.2-2.6,7.7-0.7,10.5,2.8c0.3,0.4,0.7,0.8,1.1,1.3
		c-13.7,11.8-34.3,6.2-38.9-10.4c-3.3-11.7,4.2-24.2,16.3-27.2c12.2-3.1,24.9,4.7,27.4,16.7c0.1,0.5,0.2,1.1,0.3,1.6
		c1.3,6.6,0.6,7.4-5.9,7.5C651.5,444.5,642.4,444.5,633.2,444.5z M655.1,435.9c-1.7-5.5-6.1-8.7-11.3-8.5c-5.2,0.2-9.1,3.4-10.5,8.5
		C640.6,435.9,647.8,435.9,655.1,435.9z"/>
	<path class="st4" d="M437.6,444.8c3.3,8.4,10.8,11,19.2,7c1.1-0.5,2.1-2.3,3.6-1c1.9,1.7,3.6,3.5,5.2,5.4c0.6,0.7-0.4,1.2-0.9,1.6
		c-8.3,5.9-22,7.6-31.4-1.1c-8.2-7.6-9.3-20.4-2.4-29.5c5.7-7.5,15.7-10.6,24.9-7.7c9.2,2.9,15.2,10.8,15.6,20.3
		c0.1,3.5-0.7,5.1-4.8,5c-9.3-0.4-18.6-0.1-27.9-0.1C438.4,444.5,438.2,444.6,437.6,444.8z M460.1,436.1c-2.2-5.5-5.7-8.4-11-8.6
		c-4.8-0.2-8.4,2.2-10.8,6.4c-0.9,1.7-0.8,2.3,1.3,2.3C446.3,436,452.9,436.1,460.1,436.1z"/>
	<path class="st4" d="M648.2,392c-12.9,0-22.8-9.8-22.7-22.4c0.1-12.4,10.4-22.5,22.9-22.6c12.6,0,22.6,10,22.8,22.6
		C671.4,383.5,659.1,393,648.2,392z M660.4,369.8c0-7.3-5-12.5-11.7-13c-6.2-0.5-12.4,5.5-12.4,12.7c0,7.2,5.6,13.2,12.2,13.1
		C655.1,382.6,660.4,376.9,660.4,369.8z"/>
	<path class="st7" d="M550,376.4c0,4-0.1,8,0,12.1c0.1,1.9-0.5,3-2.5,2.6c-2.8-0.6-5.9,1.5-8.5-1.3c-0.7-0.8-1.8,0.4-2.6,0.7
		c-4.6,2-9.5,2.1-14.2,1.1c-5.1-1.1-8.6-5.6-9.1-10.6c-0.6-5.9,1.9-10.5,7.2-13.4c4.9-2.6,10.3-2.9,15.7-3c3.6,0,4.1-0.9,2.3-4.1
		c-2.4-4.2-9.5-5.1-14.9-2.2c-1.1,0.6-1.9,2.6-3.5,1.3c-1.9-1.6-3.6-3.5-5.1-5.5c-0.5-0.7,0.7-1.3,1.3-1.8
		c7.3-5.3,15.3-7.1,23.8-3.5c5.8,2.4,9.2,7.1,9.6,13.4c0.4,4.7,0.1,9.4,0.1,14.1C549.8,376.4,549.9,376.4,550,376.4z M534.7,372.6
		c-2.7-0.1-5.1,0-7.3,1c-2.1,1-3.7,2.3-3.5,5c0.2,2.8,2.1,4,4.6,4.5c2.5,0.5,4.8-0.4,7.3-1c4.8-1.1,4-4.8,3.6-7.8
		C538.9,371,536,373.4,534.7,372.6z"/>
	<path class="st7" d="M378.5,369.4c0-6,0.1-11.9,0-17.9c-0.1-2.5,0.5-3.9,3.2-3.3c2.8,0.6,6.3-1.9,8.4,2c0.3,0.5,1.4-0.5,2.1-0.8
		c13.4-6.5,25.3,0.9,25.3,15.7c0,7.4-0.1,14.7,0.1,22.1c0.1,2.9-0.4,4.1-3.7,4c-7.1-0.3-7.1,0-7.1-7.3c0-6.2,0-12.5,0-18.7
		c0-4-1.5-7-5.5-8.3c-3.3-1.1-9.1,0.3-11.2,2.5c-1.1,1.2-0.8,2.6-0.8,3.9c0,8-0.1,16.1,0.1,24.1c0.1,2.9-0.6,3.8-3.6,3.7
		c-7.2-0.2-7.2,0-7.2-7.2c0-1.2,0-2.5,0-3.7C378.5,376.6,378.5,373,378.5,369.4z"/>
	<path class="st7" d="M679.4,369.5c0-6.1,0.1-12.2,0-18.3c-0.1-2.3,0.6-3.6,3-3c2.7,0.7,6.4-2.3,8.2,2.2c0.2,0.6,1.1-0.4,1.6-0.7
		c13.8-7,26.1,0.4,26.3,15.9c0.1,7.4-0.1,14.7,0.1,22.1c0.1,2.7-0.7,3.5-3.5,3.5c-7.3-0.1-7.3,0-7.3-7.4c0-5.8,0-11.7,0-17.5
		c0-3.7-1-7-4.4-8.8c-3.9-2.1-7.7-1-11.3,1c-1.8,1-1.7,2.6-1.7,4.3c0,8.3-0.1,16.7,0.1,25c0.1,2.8-0.9,3.4-3.5,3.4
		c-7.3-0.1-7.3,0-7.3-7.4C679.4,379,679.4,374.3,679.4,369.5z"/>
	<path class="st7" d="M580.7,392c-9,0.7-18.4-5.6-21.4-15.1c-3.1-9.5,0.4-20.1,8.4-25.8c7.8-5.5,19.2-5.3,26.9,0.2
		c2.7,2,3.6,3.6,0.4,5.9c-0.4,0.3-0.9,0.7-1.2,1.2c-1.9,2.7-3.4,3.3-6.3,0.6c-4.3-3.9-11.1-2.7-15.2,1.8c-4.5,5-4.6,12.3-0.2,17.4
		c4,4.7,10.3,5.6,15.3,2.4c1.4-0.9,2.5-3.6,4.1-2.7c2.4,1.4,4.3,3.8,6.2,6c1,1.2-0.6,1.9-1.3,2.6C592.8,390,587.1,392,580.7,392z"/>
	<path class="st5" d="M598.8,427.2c0-7.6,0.1-15.3-0.1-22.9c-0.1-2.8,0.8-3.5,3.4-3.4c7.4,0.1,7.4-0.1,7.4,7.3c0,13.2,0,26.3,0,39.5
		c0,5,0.9,5.8,5.7,5.6c0.5,0,1-0.5,1.5,0.1c1.6,1.9-0.5,8.2-2.9,8.7c-8.9,2-14.9-2.8-15-12C598.8,442.5,598.8,434.9,598.8,427.2z"/>
	<path class="st8" d="M490.3,351.6c7.7-5.7,11.9-5.9,17.7-1c1.6,1.4,2.3,2.5,0.8,4.5c-1.6,2.1-2.9,4.4-4.3,6.6
		c-3-2.7-5.9-5.6-10-3.3c-4.1,2.2-4.4,6.4-4.5,10.5c0,6.4-0.1,12.8,0,19.2c0,2.1-0.3,3.1-2.9,3.2c-7.9,0.1-7.9,0.2-7.9-7.7
		c0-10.4,0.2-20.8-0.1-31.2c-0.1-3.4,1.1-4.5,4.2-4c0.8,0.1,1.7,0.1,2.5,0C488.4,347.8,490.5,348.1,490.3,351.6z"/>
	<path class="st6" d="M605.2,369.8c0-6.1,0.1-12.2,0-18.3c0-2.3,0.3-3.4,3.1-3.4c7.8,0,7.8-0.1,7.8,7.9c0,10.4-0.1,20.8,0.1,31.2
		c0.1,3-0.6,4.1-3.8,4c-7.1-0.2-7.1,0-7.1-7.2C605.2,379.2,605.2,374.5,605.2,369.8z"/>
	<path class="st6" d="M660.1,328.6c-3.6,4.9-6.5,9.2-9.9,13.1c-2.2,2.5-5.3,0.8-8.6,1c2.1-4.5,4-8.6,5.8-12.7c0.7-1.5,1.8-1.5,3-1.5
		C653.4,328.6,656.2,328.6,660.1,328.6z"/>
	<path class="st9" d="M616.3,334.3c0,6.7,0,6.7-5.7,6.6c-5.9,0-5.6,0-6-7c-0.4-6.7,4.2-3.8,7.1-4.4
		C616.8,328.5,616.8,331.7,616.3,334.3z"/>
	<path class="st9" d="M523.9,243c-0.1,1.5-1.2,2.2-2.3,2.7c-4.6,2.1-9.3,4.1-13.9,6c-1.4,0.6-3,1.2-3.7-0.9
		c-0.5-1.6,0.3-2.6,1.8-3.2c4.9-2.1,9.8-4.3,14.7-6.4C522.2,240.5,523.1,241.6,523.9,243z"/>
	<path class="st9" d="M505.5,220.1c-0.2,0.3-0.5,0.9-0.9,1.4c-3.1,4.1-6.2,8.1-9.3,12.3c-1,1.3-2.1,2-3.5,1c-1.4-1-1.2-2.3-0.2-3.6
		c3.2-4.2,6.3-8.4,9.5-12.6c0.9-1.1,2-1.4,3.3-0.9C505.4,218,505.7,218.8,505.5,220.1z"/>
	<path class="st9" d="M521.6,275.2c-3.9-0.5-8.4-1.1-12.9-1.6c-1.5-0.2-2.4-0.7-2.3-2.3c0-1.9,1.3-2.2,2.8-2.1
		c5.3,0.6,10.7,1.2,16,1.7c1.3,0.1,2.1,0.9,2,2.2c0,1.6-1,2.1-2.5,2.1C523.8,275.2,523,275.2,521.6,275.2z"/>
	<path class="st9" d="M477.5,211.2c-0.6,4.4-1.3,8.7-1.9,13.1c-0.2,1.6-0.8,2.6-2.6,2.6c-1.8-0.1-1.9-1.4-1.7-2.7
		c0.6-5.3,1.2-10.7,1.9-16c0.2-1.4,1-2.3,2.5-2.2c1.7,0.1,1.8,1.4,1.8,2.7c0,0.8-0.2,1.7-0.3,2.5
		C477.4,211.1,477.5,211.1,477.5,211.2z"/>
	<path class="st10" d="M165.4,269.9c0-19.3,0.1-38.6-0.1-58c0-2.8,0.5-3.8,3.6-3.7c13.7,0.2,27.5-0.1,41.2,0.1
		c21.3,0.3,38.3,14.1,41.5,35.1c3.6,23.1-11.3,42.9-33.2,47.4c-8.5,1.8-17.1,0.7-25.7,0.8c-2.7,0-3.5,0.7-3.5,3.4
		c0.2,11.1,0,22.2,0.1,33.4c0,2.8-0.6,3.9-3.6,3.8c-5.7-0.2-11.4-0.2-17,0c-2.9,0.1-3.4-1-3.4-3.6
		C165.4,309.1,165.4,289.5,165.4,269.9z M191.1,251.6c0,6.8,0.1,13.6,0,20.4c0,2.4,0.3,3.5,3.1,3.3c4.4-0.3,8.8,0,13.3-0.1
		c11.5-0.3,21-8.9,22.2-20.1c1.4-12.9-5.3-22.9-17.2-25.9c-6.4-1.6-12.9-0.4-19.4-0.8c-2.3-0.1-1.8,1.5-1.9,2.8
		C191.1,238,191.1,244.8,191.1,251.6z"/>
	<path class="st11" d="M369.3,302.1c0,8.9,0,9-8.4,11.8c-5.2,1.8-10.6,3.1-16.2,1.3c-4.7-1.6-7.7-4.8-8-9c-0.3-4.7,2.2-7.8,6.2-9.9
		c3.5-1.8,7.3-2.6,11.2-2.8c2.2-0.1,4.4,0,6.6,0C369.3,293.5,369.3,293.5,369.3,302.1z"/>
	<path class="st12" d="M699.9,454.4c-6.5-0.1-11.8-5.6-11.7-12.1c0.1-6.5,5.5-11.8,12-11.8c6.4,0,11.8,5.6,11.7,12.1
		C711.9,449.1,706.5,454.4,699.9,454.4z"/>
	<path class="st12" d="M306.3,363.8c0,4.1-3.4,7.7-7.5,7.9c-4.2,0.1-7.9-3.5-7.9-7.9c0-4.2,3.4-7.7,7.4-7.8
		C302.7,355.9,306.3,359.4,306.3,363.8z"/>
	<path class="st13" d="M298.9,393.6c2.4-0.1,4.7,0,6.9,1.1c1.6,0.8,2.7,1.9,2.6,3.9c0,1.7-1,2.9-2.5,3.5c-4.6,2.1-9.3,2-13.9-0.1
		c-1.6-0.7-2.4-2-2.4-3.6c0-1.6,0.9-2.8,2.4-3.6C294.2,393.7,296.5,393.4,298.9,393.6z"/>
	<path class="st11" d="M561.3,440.1c0-1.4,0-2.8,0-4.2c0-7.1,2.3-9.1,9.5-8.1c6.4,0.8,10.8,8,9.5,15.1c-1.3,7.1-7.3,11.6-13.6,10.1
		c-3.6-0.8-6.1-2.4-5.4-6.8C561.5,444.2,561.3,442.1,561.3,440.1z"/>
	<path class="st13" d="M331.6,440.2c0,1.7,0,3.3,0,5c0,5.8-3.3,8.7-9,8c-4.9-0.6-8.2-3.4-9.6-8c-1.6-5.2-1.1-10.1,2.7-14.3
		c3.4-3.7,7.7-3.8,12.2-2.7c2.5,0.6,4,2,3.7,5C331.4,435.5,331.6,437.9,331.6,440.2z"/>
	<path class="st12" d="M460.1,365.3c-7.3,0-13.9-0.1-20.5,0c-2.9,0-2.5-1.2-1.4-2.9c2.6-4.1,6.3-6.2,11-5.9
		C454.5,356.8,457.9,359.9,460.1,365.3z"/>
	<path class="st13" d="M359.3,365.3c-7,0-13.5-0.1-20,0c-2.8,0-3.2-0.7-1.7-3c2.5-3.9,6.2-6.1,10.7-5.8
		C353.6,356.7,357.2,359.7,359.3,365.3z"/>
	<path class="st12" d="M361.9,436.1c2.4-5.9,6.2-8.8,11.2-8.7c5.1,0,9,3.1,10.9,8.4c-0.4,0.1-0.7,0.3-1.1,0.3
		C376,436.1,369.1,436.1,361.9,436.1z"/>
	<path class="st12" d="M655.1,435.9c-7.3,0-14.6,0-21.8,0c1.4-5.1,5.3-8.4,10.5-8.5C649.1,427.2,653.4,430.4,655.1,435.9z"/>
	<path class="st12" d="M460.1,436.1c-7.2,0-13.8-0.1-20.4,0c-2.2,0-2.3-0.6-1.3-2.3c2.4-4.2,5.9-6.6,10.8-6.4
		C454.4,427.7,457.9,430.6,460.1,436.1z"/>
	<path class="st11" d="M660.4,369.8c0,7.2-5.3,12.8-12,12.9c-6.7,0.1-12.3-6-12.2-13.1c0-7.2,6.2-13.2,12.4-12.7
		C655.5,357.3,660.5,362.4,660.4,369.8z"/>
	<path class="st13" d="M534.7,372.6c1.2,0.8,4.2-1.6,4.6,1.6c0.4,3.1,1.2,6.7-3.6,7.8c-2.4,0.6-4.7,1.5-7.3,1
		c-2.5-0.5-4.3-1.7-4.6-4.5c-0.2-2.7,1.4-4,3.5-5C529.6,372.6,532,372.5,534.7,372.6z"/>
	<path class="st14" d="M191.1,251.6c0-6.8,0-13.6,0-20.4c0-1.3-0.5-2.9,1.9-2.8c6.5,0.4,13-0.8,19.4,0.8c12,3.1,18.6,13,17.2,25.9
		c-1.2,11.1-10.7,19.8-22.2,20.1c-4.4,0.1-8.9-0.2-13.3,0.1c-2.8,0.2-3.1-1-3.1-3.3C191.2,265.2,191.1,258.4,191.1,251.6z"/>
</g>
</svg>
